# This file uses centimeters as units for non-parametric coordinates.

mtllib wall.mtl
g default
v 27.569843 0.341508 6.253872
v 100.419795 0.341508 6.253872
v 27.569843 121.994230 6.253872
v 100.419795 121.994230 6.253872
v 27.569843 121.994230 -0.697993
v 100.419795 121.994230 -0.697993
v 27.569843 0.341508 -0.697993
v 100.419795 0.341508 -0.697993
v 27.569843 10.347210 6.253872
v 100.419795 10.347210 6.253872
v 100.419795 10.347255 -0.697993
v 27.569843 10.347255 -0.697993
v 27.569843 0.341508 7.215754
v 100.419795 0.341508 7.215754
v 100.419795 10.347210 7.215754
v 27.569843 10.347210 7.215754
v 100.419795 10.347255 -1.659873
v 27.569843 10.347255 -1.659873
v 100.419795 0.341508 -1.659873
v 27.569843 0.341508 -1.659873
vt 0.375000 0.000000
vt 0.625000 0.000000
vt 0.375000 0.250000
vt 0.625000 0.250000
vt 0.375000 0.500000
vt 0.625000 0.500000
vt 0.375000 0.750000
vt 0.625000 0.750000
vt 0.375000 1.000000
vt 0.625000 1.000000
vt 0.875000 0.000000
vt 0.875000 0.250000
vt 0.125000 0.000000
vt 0.125000 0.250000
vt 0.375000 0.022782
vt 0.625000 0.022782
vt 0.625000 0.727218
vt 0.875000 0.022782
vt 0.125000 0.022782
vt 0.375000 0.727218
vt 0.375000 0.000000
vt 0.625000 0.000000
vt 0.625000 0.022782
vt 0.375000 0.022782
vt 0.375000 0.727218
vt 0.625000 0.727218
vt 0.625000 0.750000
vt 0.375000 0.750000
vn 0.000000 0.000000 1.000000
vn 0.000000 0.000000 1.000000
vn 0.000000 0.000000 1.000000
vn 0.000000 0.000000 1.000000
vn 0.000000 1.000000 0.000000
vn 0.000000 1.000000 0.000000
vn 0.000000 1.000000 0.000000
vn 0.000000 1.000000 0.000000
vn 0.000000 0.000000 -1.000000
vn 0.000000 0.000000 -1.000000
vn 0.000000 0.000000 -1.000000
vn 0.000000 0.000000 -1.000000
vn 0.000000 -1.000000 0.000000
vn 0.000000 -1.000000 0.000000
vn 0.000000 -1.000000 0.000000
vn 0.000000 -1.000000 0.000000
vn 1.000000 0.000000 0.000000
vn 1.000000 0.000000 0.000000
vn 1.000000 0.000000 0.000000
vn 1.000000 0.000000 0.000000
vn -1.000000 0.000000 0.000000
vn -1.000000 0.000000 0.000000
vn -1.000000 0.000000 0.000000
vn -1.000000 0.000000 0.000000
vn 0.000000 0.000000 1.000000
vn 0.000000 0.000000 1.000000
vn 0.000000 0.000000 1.000000
vn 0.000000 0.000000 1.000000
vn 1.000000 0.000000 0.000000
vn 1.000000 0.000000 0.000000
vn 0.000000 0.000000 -1.000000
vn 0.000000 0.000000 -1.000000
vn 0.000000 0.000000 -1.000000
vn 0.000000 0.000000 -1.000000
vn -1.000000 0.000000 0.000000
vn -1.000000 0.000000 0.000000
vn 0.000000 -1.000000 0.000000
vn 0.000000 -1.000000 0.000000
vn 1.000000 0.000000 0.000000
vn 1.000000 0.000000 0.000000
vn 0.000000 1.000000 0.000000
vn 0.000000 1.000000 0.000000
vn 0.000000 1.000000 0.000000
vn 0.000000 1.000000 0.000000
vn -1.000000 0.000000 0.000000
vn -1.000000 0.000000 0.000000
vn 0.000000 1.000000 0.000000
vn 0.000000 1.000000 0.000000
vn 0.000000 1.000000 0.000000
vn 0.000000 1.000000 0.000000
vn 1.000000 0.000000 0.000000
vn 1.000000 0.000000 0.000000
vn 0.000000 -1.000000 0.000000
vn 0.000000 -1.000000 0.000000
vn -1.000000 0.000000 0.000000
vn -1.000000 0.000000 0.000000
s off
g walltile_normal Walls
usemtl initialShadingGroup
f 9/15/1 10/16/2 4/4/3 3/3/4
f 3/3/5 4/4/6 6/6/7 5/5/8
f 5/5/9 6/6/10 11/17/11 12/20/12
s 1
f 7/7/13 8/8/14 2/10/15 1/9/16
s 2
f 10/16/17 11/18/18 6/12/19 4/4/20
s 3
f 12/19/21 9/15/22 3/3/23 5/14/24
s off
f 13/21/25 14/22/26 15/23/27 16/24/28
s 2
f 2/2/29 8/11/30 11/18/18 10/16/17
s off
f 18/25/31 17/26/32 19/27/33 20/28/34
s 3
f 7/13/35 1/1/36 9/15/22 12/19/21
s 1
f 1/1/16 2/2/15 14/22/37 13/21/38
s 2
f 2/2/29 10/16/17 15/23/39 14/22/40
s off
f 10/16/41 9/15/42 16/24/43 15/23/44
s 3
f 9/15/22 1/1/36 13/21/45 16/24/46
s off
f 12/20/47 11/17/48 17/26/49 18/25/50
s 2
f 11/17/18 8/8/30 19/27/51 17/26/52
s 1
f 8/8/14 7/7/13 20/28/53 19/27/54
s 3
f 7/7/35 12/20/21 18/25/55 20/28/56
